<svg version="1.2" xmlns="http://www.w3.org/2000/svg" viewBox="0 0 50 50" width="50" height="50">
	<title>bnb-bnb-logo-svg</title>
	<style>
		.s0 { fill: #f0b90b } 
		.s1 { fill: #ffffff } 
	</style>
	<g id="Layer">
		<path id="Layer" fill-rule="evenodd" class="s0" d="m25 0c13.8 0 25 11.2 25 25 0 13.8-11.2 25-25 25-13.8 0-25-11.2-25-25 0-13.8 11.2-25 25-25z"/>
		<path id="Layer" class="s1" d="m13.7 25l0.1 6.6 5.6 3.3v3.9l-8.9-5.2v-10.5zm0-6.6v3.8l-3.3-1.9v-3.9l3.3-1.9 3.3 1.9zm7.9-1.9l3.3-1.9 3.3 1.9-3.3 1.9z"/>
		<path id="Layer" class="s1" d="m16.1 30.2v-3.8l3.3 1.9v3.9zm5.6 6l3.3 2 3.3-2v3.9l-3.3 1.9-3.3-1.9zm11.2-19.9l3.3-1.9 3.3 1.9v3.9l-3.3 1.9v-3.8zm3.3 15.1v-6.6l3.3-1.9v10.5l-8.9 5.2v-3.9z"/>
		<path id="Layer" class="s1" d="m33.9 30.2l-3.3 2v-3.9l3.3-1.9v3.8z"/>
		<path id="Layer" class="s1" d="m33.9 19.8v3.8l-5.6 3.3v6.7l-3.3 1.9-3.3-1.9v-6.7l-5.6-3.3v-3.8l3.3-2 5.6 3.3 5.6-3.3 3.3 2zm-17.8-6.6l8.9-5.3 8.9 5.3-3.3 1.9-5.6-3.3-5.6 3.3z"/>
	</g>
</svg>